<mxfile host="app.diagrams.net" modified="2024-06-03T08:41:21.972Z" agent="Mozilla/5.0 (Windows NT 10.0; Win64; x64) AppleWebKit/537.36 (KHTML, like Gecko) Chrome/125.0.0.0 Safari/537.36" etag="F2Z_iMyhTSDl2A_arr6A" version="24.4.13" type="github" pages="4">
  <diagram name="投稿一覧" id="f1b7ffb7-ca1e-a977-7cf5-a751b3c06c05">
    <mxGraphModel dx="1050" dy="522" grid="1" gridSize="10" guides="1" tooltips="1" connect="1" arrows="1" fold="1" page="1" pageScale="1" pageWidth="1169" pageHeight="1654" background="none" math="0" shadow="0">
      <root>
        <mxCell id="0" />
        <mxCell id="1" parent="0" />
        <mxCell id="13" value="" style="verticalLabelPosition=bottom;verticalAlign=top;strokeWidth=1;shape=mxgraph.mockup.graphics.iconGrid;strokeColor=#CCCCCC;gridSize=1,1;" parent="1" vertex="1">
          <mxGeometry x="300" y="100" width="570" height="570" as="geometry" />
        </mxCell>
        <mxCell id="U0ItRNdAv3hKQDDzR_B8-69" value="" style="strokeWidth=1;shadow=0;dashed=0;align=center;html=1;shape=mxgraph.mockup.rrect;rSize=10;fillColor=#ffffff;strokeColor=#666666;" vertex="1" parent="1">
          <mxGeometry x="335" y="60" width="500" height="30" as="geometry" />
        </mxCell>
        <mxCell id="U0ItRNdAv3hKQDDzR_B8-70" value="順番2" style="strokeColor=inherit;fillColor=inherit;gradientColor=inherit;strokeWidth=1;shadow=0;dashed=0;align=center;html=1;shape=mxgraph.mockup.rrect;rSize=0;fontSize=17;fontColor=#666666;fontStyle=1;resizeHeight=1;whiteSpace=wrap;" vertex="1" parent="U0ItRNdAv3hKQDDzR_B8-69">
          <mxGeometry width="125" height="30" relative="1" as="geometry">
            <mxPoint x="125" as="offset" />
          </mxGeometry>
        </mxCell>
        <mxCell id="U0ItRNdAv3hKQDDzR_B8-71" value="順番3" style="strokeColor=inherit;fillColor=inherit;gradientColor=inherit;strokeWidth=1;shadow=0;dashed=0;align=center;html=1;shape=mxgraph.mockup.rrect;rSize=0;fontSize=17;fontColor=#666666;fontStyle=1;resizeHeight=1;whiteSpace=wrap;" vertex="1" parent="U0ItRNdAv3hKQDDzR_B8-69">
          <mxGeometry width="125" height="30" relative="1" as="geometry">
            <mxPoint x="250" as="offset" />
          </mxGeometry>
        </mxCell>
        <mxCell id="U0ItRNdAv3hKQDDzR_B8-72" value="順番4" style="strokeColor=inherit;fillColor=inherit;gradientColor=inherit;strokeWidth=1;shadow=0;dashed=0;align=center;html=1;shape=mxgraph.mockup.rightButton;rSize=10;fontSize=17;fontColor=#666666;fontStyle=1;resizeHeight=1;whiteSpace=wrap;" vertex="1" parent="U0ItRNdAv3hKQDDzR_B8-69">
          <mxGeometry x="1" width="125" height="30" relative="1" as="geometry">
            <mxPoint x="-125" as="offset" />
          </mxGeometry>
        </mxCell>
        <mxCell id="U0ItRNdAv3hKQDDzR_B8-73" value="順番1" style="strokeWidth=1;shadow=0;dashed=0;align=center;html=1;shape=mxgraph.mockup.leftButton;rSize=10;fontSize=17;fontColor=#ffffff;fontStyle=1;fillColor=#008cff;strokeColor=#008cff;resizeHeight=1;whiteSpace=wrap;" vertex="1" parent="U0ItRNdAv3hKQDDzR_B8-69">
          <mxGeometry width="125" height="30" relative="1" as="geometry" />
        </mxCell>
        <mxCell id="U0ItRNdAv3hKQDDzR_B8-74" value="アイコン" style="ellipse;whiteSpace=wrap;html=1;aspect=fixed;" vertex="1" parent="1">
          <mxGeometry x="340" y="110" width="50" height="50" as="geometry" />
        </mxCell>
        <mxCell id="U0ItRNdAv3hKQDDzR_B8-78" value="名前" style="rounded=0;whiteSpace=wrap;html=1;" vertex="1" parent="1">
          <mxGeometry x="410" y="120" width="130" height="40" as="geometry" />
        </mxCell>
        <mxCell id="U0ItRNdAv3hKQDDzR_B8-81" value="写真" style="rounded=0;whiteSpace=wrap;html=1;" vertex="1" parent="1">
          <mxGeometry x="425" y="410" width="320" height="200" as="geometry" />
        </mxCell>
        <mxCell id="U0ItRNdAv3hKQDDzR_B8-82" value="いいね〇件　Plan〇件　コメント〇件　" style="rounded=0;whiteSpace=wrap;html=1;" vertex="1" parent="1">
          <mxGeometry x="320" y="630" width="250" height="30" as="geometry" />
        </mxCell>
        <mxCell id="U0ItRNdAv3hKQDDzR_B8-84" value="他〇枚" style="rounded=0;whiteSpace=wrap;html=1;" vertex="1" parent="1">
          <mxGeometry x="760" y="580" width="80" height="30" as="geometry" />
        </mxCell>
        <mxCell id="U0ItRNdAv3hKQDDzR_B8-87" value="説明文" style="rounded=0;whiteSpace=wrap;html=1;" vertex="1" parent="1">
          <mxGeometry x="380" y="250" width="410" height="140" as="geometry" />
        </mxCell>
        <mxCell id="U0ItRNdAv3hKQDDzR_B8-88" value="" style="verticalLabelPosition=bottom;verticalAlign=top;strokeWidth=1;shape=mxgraph.mockup.graphics.iconGrid;strokeColor=#CCCCCC;gridSize=1,1;" vertex="1" parent="1">
          <mxGeometry x="300" y="690" width="570" height="570" as="geometry" />
        </mxCell>
        <mxCell id="U0ItRNdAv3hKQDDzR_B8-89" value="アイコン" style="ellipse;whiteSpace=wrap;html=1;aspect=fixed;" vertex="1" parent="1">
          <mxGeometry x="320" y="710" width="60" height="60" as="geometry" />
        </mxCell>
        <mxCell id="U0ItRNdAv3hKQDDzR_B8-90" value="ユーザーネーム" style="rounded=0;whiteSpace=wrap;html=1;" vertex="1" parent="1">
          <mxGeometry x="410" y="710" width="160" height="30" as="geometry" />
        </mxCell>
        <mxCell id="U0ItRNdAv3hKQDDzR_B8-91" value="投稿日時" style="rounded=0;whiteSpace=wrap;html=1;" vertex="1" parent="1">
          <mxGeometry x="590" y="710" width="120" height="30" as="geometry" />
        </mxCell>
        <mxCell id="U0ItRNdAv3hKQDDzR_B8-92" value="名前" style="rounded=0;whiteSpace=wrap;html=1;" vertex="1" parent="1">
          <mxGeometry x="410" y="740" width="160" height="30" as="geometry" />
        </mxCell>
        <mxCell id="U0ItRNdAv3hKQDDzR_B8-93" value="場所の名前" style="rounded=0;whiteSpace=wrap;html=1;" vertex="1" parent="1">
          <mxGeometry x="590" y="740" width="120" height="30" as="geometry" />
        </mxCell>
        <mxCell id="U0ItRNdAv3hKQDDzR_B8-94" value="写真" style="rounded=0;whiteSpace=wrap;html=1;" vertex="1" parent="1">
          <mxGeometry x="425" y="1000" width="320" height="200" as="geometry" />
        </mxCell>
        <mxCell id="U0ItRNdAv3hKQDDzR_B8-95" value="いいね〇件　Plan〇件　コメント〇件　" style="rounded=0;whiteSpace=wrap;html=1;" vertex="1" parent="1">
          <mxGeometry x="320" y="1220" width="250" height="30" as="geometry" />
        </mxCell>
        <mxCell id="U0ItRNdAv3hKQDDzR_B8-96" value="他〇枚" style="rounded=0;whiteSpace=wrap;html=1;" vertex="1" parent="1">
          <mxGeometry x="760" y="1170" width="80" height="30" as="geometry" />
        </mxCell>
        <mxCell id="U0ItRNdAv3hKQDDzR_B8-97" value="ジャンル" style="rounded=0;whiteSpace=wrap;html=1;" vertex="1" parent="1">
          <mxGeometry x="730" y="740" width="120" height="30" as="geometry" />
        </mxCell>
        <mxCell id="U0ItRNdAv3hKQDDzR_B8-98" value="説明文" style="rounded=0;whiteSpace=wrap;html=1;" vertex="1" parent="1">
          <mxGeometry x="380" y="790" width="410" height="190" as="geometry" />
        </mxCell>
        <mxCell id="U0ItRNdAv3hKQDDzR_B8-108" value="" style="rounded=0;whiteSpace=wrap;html=1;" vertex="1" parent="1">
          <mxGeometry x="50" y="10" width="230" height="500" as="geometry" />
        </mxCell>
        <mxCell id="U0ItRNdAv3hKQDDzR_B8-110" value="&lt;font style=&quot;font-size: 20px;&quot;&gt;とりぷら！&lt;/font&gt;&lt;div style=&quot;font-size: 20px;&quot;&gt;&lt;font style=&quot;font-size: 20px;&quot;&gt;-Trip Planning-&lt;/font&gt;&lt;/div&gt;" style="rounded=0;whiteSpace=wrap;html=1;" vertex="1" parent="1">
          <mxGeometry x="70" y="20" width="190" height="60" as="geometry" />
        </mxCell>
        <mxCell id="U0ItRNdAv3hKQDDzR_B8-111" value="&lt;font style=&quot;font-size: 26px;&quot;&gt;HOME&lt;/font&gt;&lt;div&gt;&lt;br&gt;&lt;/div&gt;&lt;div&gt;ABOUT&lt;br&gt;&lt;div style=&quot;font-size: 26px;&quot;&gt;&lt;font style=&quot;font-size: 26px;&quot;&gt;&lt;br style=&quot;font-size: 26px;&quot;&gt;&lt;/font&gt;&lt;/div&gt;&lt;div style=&quot;font-size: 26px;&quot;&gt;&lt;font style=&quot;font-size: 26px;&quot;&gt;タイムライン&lt;/font&gt;&lt;/div&gt;&lt;div style=&quot;font-size: 26px;&quot;&gt;&lt;font style=&quot;font-size: 26px;&quot;&gt;&lt;br&gt;&lt;/font&gt;&lt;/div&gt;&lt;div style=&quot;font-size: 26px;&quot;&gt;&lt;font style=&quot;font-size: 26px;&quot;&gt;検索&lt;/font&gt;&lt;/div&gt;&lt;/div&gt;&lt;div style=&quot;font-size: 26px;&quot;&gt;&lt;font style=&quot;font-size: 26px;&quot;&gt;&lt;br&gt;&lt;/font&gt;&lt;/div&gt;&lt;div style=&quot;font-size: 26px;&quot;&gt;&lt;font style=&quot;font-size: 26px;&quot;&gt;投稿&lt;/font&gt;&lt;/div&gt;" style="rounded=0;whiteSpace=wrap;html=1;fontSize=26;" vertex="1" parent="1">
          <mxGeometry x="65" y="110" width="200" height="315" as="geometry" />
        </mxCell>
        <mxCell id="U0ItRNdAv3hKQDDzR_B8-112" value="ログアウト" style="rounded=0;whiteSpace=wrap;html=1;" vertex="1" parent="1">
          <mxGeometry x="90" y="470" width="150" height="30" as="geometry" />
        </mxCell>
        <mxCell id="U0ItRNdAv3hKQDDzR_B8-114" value="" style="rounded=0;whiteSpace=wrap;html=1;" vertex="1" parent="1">
          <mxGeometry x="890" y="10" width="230" height="500" as="geometry" />
        </mxCell>
        <mxCell id="U0ItRNdAv3hKQDDzR_B8-115" value="&lt;font style=&quot;font-size: 23px;&quot;&gt;タイムライン&lt;/font&gt;" style="rounded=0;whiteSpace=wrap;html=1;" vertex="1" parent="1">
          <mxGeometry x="475" y="10" width="220" height="40" as="geometry" />
        </mxCell>
        <mxCell id="U0ItRNdAv3hKQDDzR_B8-116" value="&lt;font style=&quot;font-size: 18px;&quot;&gt;絞り込み条件&lt;/font&gt;" style="rounded=0;whiteSpace=wrap;html=1;" vertex="1" parent="1">
          <mxGeometry x="922.5" y="20" width="165" height="30" as="geometry" />
        </mxCell>
        <mxCell id="U0ItRNdAv3hKQDDzR_B8-117" value="検索キーワード：「〇〇」" style="rounded=0;whiteSpace=wrap;html=1;" vertex="1" parent="1">
          <mxGeometry x="906.25" y="120" width="200" height="30" as="geometry" />
        </mxCell>
        <mxCell id="U0ItRNdAv3hKQDDzR_B8-119" value="条件1　条件2　条件3&lt;div&gt;条件4　・・・&lt;/div&gt;" style="rounded=0;whiteSpace=wrap;html=1;" vertex="1" parent="1">
          <mxGeometry x="921.25" y="230" width="167.5" height="80" as="geometry" />
        </mxCell>
        <mxCell id="U0ItRNdAv3hKQDDzR_B8-120" value="食事or観光or宿泊" style="rounded=0;whiteSpace=wrap;html=1;" vertex="1" parent="1">
          <mxGeometry x="946.25" y="61" width="120" height="40" as="geometry" />
        </mxCell>
        <mxCell id="U0ItRNdAv3hKQDDzR_B8-121" value="〇〇県△△市" style="rounded=0;whiteSpace=wrap;html=1;" vertex="1" parent="1">
          <mxGeometry x="570" y="140" width="130" height="20" as="geometry" />
        </mxCell>
        <mxCell id="U0ItRNdAv3hKQDDzR_B8-122" value="日時" style="rounded=0;whiteSpace=wrap;html=1;" vertex="1" parent="1">
          <mxGeometry x="570" y="120" width="130" height="20" as="geometry" />
        </mxCell>
        <mxCell id="U0ItRNdAv3hKQDDzR_B8-123" value="&lt;font style=&quot;font-size: 16px;&quot;&gt;タイトル&lt;/font&gt;" style="rounded=0;whiteSpace=wrap;html=1;" vertex="1" parent="1">
          <mxGeometry x="385" y="180" width="120" height="30" as="geometry" />
        </mxCell>
        <mxCell id="U0ItRNdAv3hKQDDzR_B8-124" value="カテゴリー" style="rounded=0;whiteSpace=wrap;html=1;" vertex="1" parent="1">
          <mxGeometry x="385" y="210" width="120" height="20" as="geometry" />
        </mxCell>
        <mxCell id="U0ItRNdAv3hKQDDzR_B8-125" value="&lt;font style=&quot;font-size: 16px;&quot;&gt;検索条件を変更する&lt;/font&gt;" style="rounded=0;whiteSpace=wrap;html=1;" vertex="1" parent="1">
          <mxGeometry x="916.25" y="340" width="180" height="60" as="geometry" />
        </mxCell>
        <mxCell id="U0ItRNdAv3hKQDDzR_B8-127" value="カテゴリー" style="rounded=0;whiteSpace=wrap;html=1;" vertex="1" parent="1">
          <mxGeometry x="945" y="170" width="120" height="40" as="geometry" />
        </mxCell>
      </root>
    </mxGraphModel>
  </diagram>
  <diagram name="投稿詳細" id="U-LXYt8jow1pXn2zZVHh">
    <mxGraphModel dx="1050" dy="522" grid="1" gridSize="10" guides="1" tooltips="1" connect="1" arrows="1" fold="1" page="1" pageScale="1" pageWidth="1169" pageHeight="1654" background="none" math="0" shadow="0">
      <root>
        <mxCell id="39P1uzcSHCTFRIGBNehX-0" />
        <mxCell id="39P1uzcSHCTFRIGBNehX-1" parent="39P1uzcSHCTFRIGBNehX-0" />
        <mxCell id="39P1uzcSHCTFRIGBNehX-2" value="" style="verticalLabelPosition=bottom;verticalAlign=top;strokeWidth=1;shape=mxgraph.mockup.graphics.iconGrid;strokeColor=#CCCCCC;gridSize=1,1;" vertex="1" parent="39P1uzcSHCTFRIGBNehX-1">
          <mxGeometry x="300" y="100" width="570" height="570" as="geometry" />
        </mxCell>
        <mxCell id="39P1uzcSHCTFRIGBNehX-8" value="アイコン" style="ellipse;whiteSpace=wrap;html=1;aspect=fixed;" vertex="1" parent="39P1uzcSHCTFRIGBNehX-1">
          <mxGeometry x="340" y="110" width="50" height="50" as="geometry" />
        </mxCell>
        <mxCell id="39P1uzcSHCTFRIGBNehX-9" value="名前" style="rounded=0;whiteSpace=wrap;html=1;" vertex="1" parent="39P1uzcSHCTFRIGBNehX-1">
          <mxGeometry x="410" y="120" width="130" height="40" as="geometry" />
        </mxCell>
        <mxCell id="39P1uzcSHCTFRIGBNehX-10" value="写真" style="rounded=0;whiteSpace=wrap;html=1;" vertex="1" parent="39P1uzcSHCTFRIGBNehX-1">
          <mxGeometry x="425" y="410" width="320" height="200" as="geometry" />
        </mxCell>
        <mxCell id="39P1uzcSHCTFRIGBNehX-11" value="いいね〇件　Plan〇件　コメント〇件　" style="rounded=0;whiteSpace=wrap;html=1;" vertex="1" parent="39P1uzcSHCTFRIGBNehX-1">
          <mxGeometry x="320" y="630" width="250" height="30" as="geometry" />
        </mxCell>
        <mxCell id="39P1uzcSHCTFRIGBNehX-12" value="他〇枚" style="rounded=0;whiteSpace=wrap;html=1;" vertex="1" parent="39P1uzcSHCTFRIGBNehX-1">
          <mxGeometry x="760" y="580" width="80" height="30" as="geometry" />
        </mxCell>
        <mxCell id="39P1uzcSHCTFRIGBNehX-13" value="説明文" style="rounded=0;whiteSpace=wrap;html=1;" vertex="1" parent="39P1uzcSHCTFRIGBNehX-1">
          <mxGeometry x="380" y="250" width="410" height="140" as="geometry" />
        </mxCell>
        <mxCell id="39P1uzcSHCTFRIGBNehX-25" value="" style="rounded=0;whiteSpace=wrap;html=1;" vertex="1" parent="39P1uzcSHCTFRIGBNehX-1">
          <mxGeometry x="50" y="10" width="230" height="500" as="geometry" />
        </mxCell>
        <mxCell id="39P1uzcSHCTFRIGBNehX-26" value="&lt;font style=&quot;font-size: 20px;&quot;&gt;とりぷら！&lt;/font&gt;&lt;div style=&quot;font-size: 20px;&quot;&gt;&lt;font style=&quot;font-size: 20px;&quot;&gt;-Trip Planning-&lt;/font&gt;&lt;/div&gt;" style="rounded=0;whiteSpace=wrap;html=1;" vertex="1" parent="39P1uzcSHCTFRIGBNehX-1">
          <mxGeometry x="70" y="20" width="190" height="60" as="geometry" />
        </mxCell>
        <mxCell id="39P1uzcSHCTFRIGBNehX-27" value="&lt;font style=&quot;font-size: 26px;&quot;&gt;HOME&lt;/font&gt;&lt;div&gt;&lt;br&gt;&lt;/div&gt;&lt;div&gt;ABOUT&lt;br&gt;&lt;div style=&quot;font-size: 26px;&quot;&gt;&lt;font style=&quot;font-size: 26px;&quot;&gt;&lt;br style=&quot;font-size: 26px;&quot;&gt;&lt;/font&gt;&lt;/div&gt;&lt;div style=&quot;font-size: 26px;&quot;&gt;&lt;font style=&quot;font-size: 26px;&quot;&gt;タイムライン&lt;/font&gt;&lt;/div&gt;&lt;div style=&quot;font-size: 26px;&quot;&gt;&lt;font style=&quot;font-size: 26px;&quot;&gt;&lt;br&gt;&lt;/font&gt;&lt;/div&gt;&lt;div style=&quot;font-size: 26px;&quot;&gt;&lt;font style=&quot;font-size: 26px;&quot;&gt;検索&lt;/font&gt;&lt;/div&gt;&lt;/div&gt;&lt;div style=&quot;font-size: 26px;&quot;&gt;&lt;font style=&quot;font-size: 26px;&quot;&gt;&lt;br&gt;&lt;/font&gt;&lt;/div&gt;&lt;div style=&quot;font-size: 26px;&quot;&gt;&lt;font style=&quot;font-size: 26px;&quot;&gt;投稿&lt;/font&gt;&lt;/div&gt;" style="rounded=0;whiteSpace=wrap;html=1;fontSize=26;" vertex="1" parent="39P1uzcSHCTFRIGBNehX-1">
          <mxGeometry x="65" y="110" width="200" height="315" as="geometry" />
        </mxCell>
        <mxCell id="39P1uzcSHCTFRIGBNehX-28" value="ログアウト" style="rounded=0;whiteSpace=wrap;html=1;" vertex="1" parent="39P1uzcSHCTFRIGBNehX-1">
          <mxGeometry x="90" y="470" width="150" height="30" as="geometry" />
        </mxCell>
        <mxCell id="39P1uzcSHCTFRIGBNehX-35" value="〇〇県△△市" style="rounded=0;whiteSpace=wrap;html=1;" vertex="1" parent="39P1uzcSHCTFRIGBNehX-1">
          <mxGeometry x="570" y="140" width="130" height="20" as="geometry" />
        </mxCell>
        <mxCell id="39P1uzcSHCTFRIGBNehX-36" value="日時" style="rounded=0;whiteSpace=wrap;html=1;" vertex="1" parent="39P1uzcSHCTFRIGBNehX-1">
          <mxGeometry x="570" y="120" width="130" height="20" as="geometry" />
        </mxCell>
        <mxCell id="39P1uzcSHCTFRIGBNehX-37" value="&lt;font style=&quot;font-size: 16px;&quot;&gt;タイトル&lt;/font&gt;" style="rounded=0;whiteSpace=wrap;html=1;" vertex="1" parent="39P1uzcSHCTFRIGBNehX-1">
          <mxGeometry x="385" y="180" width="120" height="30" as="geometry" />
        </mxCell>
        <mxCell id="39P1uzcSHCTFRIGBNehX-38" value="カテゴリー" style="rounded=0;whiteSpace=wrap;html=1;" vertex="1" parent="39P1uzcSHCTFRIGBNehX-1">
          <mxGeometry x="385" y="210" width="120" height="20" as="geometry" />
        </mxCell>
      </root>
    </mxGraphModel>
  </diagram>
  <diagram name="ユーザー一覧" id="9v7H5FWh9io3QyoBOzr7">
    <mxGraphModel dx="1050" dy="522" grid="1" gridSize="10" guides="1" tooltips="1" connect="1" arrows="1" fold="1" page="1" pageScale="1" pageWidth="1169" pageHeight="1654" background="none" math="0" shadow="0">
      <root>
        <mxCell id="Whv6XW-6qkTEznCDVao7-0" />
        <mxCell id="Whv6XW-6qkTEznCDVao7-1" parent="Whv6XW-6qkTEznCDVao7-0" />
        <mxCell id="Whv6XW-6qkTEznCDVao7-26" value="" style="rounded=0;whiteSpace=wrap;html=1;" vertex="1" parent="Whv6XW-6qkTEznCDVao7-1">
          <mxGeometry x="50" y="10" width="230" height="500" as="geometry" />
        </mxCell>
        <mxCell id="Whv6XW-6qkTEznCDVao7-27" value="&lt;font style=&quot;font-size: 20px;&quot;&gt;とりぷら！&lt;/font&gt;&lt;div style=&quot;font-size: 20px;&quot;&gt;&lt;font style=&quot;font-size: 20px;&quot;&gt;-Trip Planning-&lt;/font&gt;&lt;/div&gt;" style="rounded=0;whiteSpace=wrap;html=1;" vertex="1" parent="Whv6XW-6qkTEznCDVao7-1">
          <mxGeometry x="70" y="20" width="190" height="60" as="geometry" />
        </mxCell>
        <mxCell id="Whv6XW-6qkTEznCDVao7-28" value="&lt;font style=&quot;font-size: 26px;&quot;&gt;HOME&lt;/font&gt;&lt;div&gt;&lt;br&gt;&lt;/div&gt;&lt;div&gt;スケジュール&lt;/div&gt;&lt;div&gt;&lt;br&gt;&lt;div style=&quot;font-size: 26px;&quot;&gt;&lt;font style=&quot;font-size: 26px;&quot;&gt;タイムライン&lt;/font&gt;&lt;/div&gt;&lt;div style=&quot;font-size: 26px;&quot;&gt;&lt;font style=&quot;font-size: 26px;&quot;&gt;&lt;br&gt;&lt;/font&gt;&lt;/div&gt;&lt;div style=&quot;font-size: 26px;&quot;&gt;&lt;font style=&quot;font-size: 26px;&quot;&gt;検索&lt;/font&gt;&lt;/div&gt;&lt;/div&gt;&lt;div style=&quot;font-size: 26px;&quot;&gt;&lt;font style=&quot;font-size: 26px;&quot;&gt;&lt;br&gt;&lt;/font&gt;&lt;/div&gt;&lt;div style=&quot;font-size: 26px;&quot;&gt;&lt;font style=&quot;font-size: 26px;&quot;&gt;投稿&lt;/font&gt;&lt;/div&gt;" style="rounded=0;whiteSpace=wrap;html=1;fontSize=26;" vertex="1" parent="Whv6XW-6qkTEznCDVao7-1">
          <mxGeometry x="65" y="110" width="200" height="315" as="geometry" />
        </mxCell>
        <mxCell id="Whv6XW-6qkTEznCDVao7-29" value="ログアウト" style="rounded=0;whiteSpace=wrap;html=1;" vertex="1" parent="Whv6XW-6qkTEznCDVao7-1">
          <mxGeometry x="90" y="470" width="150" height="30" as="geometry" />
        </mxCell>
        <mxCell id="Whv6XW-6qkTEznCDVao7-30" value="" style="rounded=0;whiteSpace=wrap;html=1;" vertex="1" parent="Whv6XW-6qkTEznCDVao7-1">
          <mxGeometry x="890" y="10" width="230" height="460" as="geometry" />
        </mxCell>
        <mxCell id="Whv6XW-6qkTEznCDVao7-31" value="&lt;span style=&quot;font-size: 23px;&quot;&gt;フォロー中&lt;/span&gt;" style="rounded=0;whiteSpace=wrap;html=1;" vertex="1" parent="Whv6XW-6qkTEznCDVao7-1">
          <mxGeometry x="475" y="10" width="220" height="40" as="geometry" />
        </mxCell>
        <mxCell id="8jvTHXoqap3EH5u54p2k-0" value="" style="rounded=0;whiteSpace=wrap;html=1;" vertex="1" parent="Whv6XW-6qkTEznCDVao7-1">
          <mxGeometry x="320" y="70" width="530" height="120" as="geometry" />
        </mxCell>
        <mxCell id="uORJf-b78jwGalRrXrIX-0" value="アイコン" style="ellipse;whiteSpace=wrap;html=1;aspect=fixed;" vertex="1" parent="Whv6XW-6qkTEznCDVao7-1">
          <mxGeometry x="340" y="75" width="50" height="50" as="geometry" />
        </mxCell>
        <mxCell id="LSDbec0_sKJ5LCoz3tkf-0" value="&lt;font style=&quot;font-size: 16px;&quot;&gt;名前&lt;/font&gt;" style="rounded=0;whiteSpace=wrap;html=1;" vertex="1" parent="Whv6XW-6qkTEznCDVao7-1">
          <mxGeometry x="410" y="85" width="120" height="30" as="geometry" />
        </mxCell>
        <mxCell id="KXPFGndM-SMpojoQPKzY-1" value="&lt;font style=&quot;font-size: 16px;&quot;&gt;フォローする&lt;/font&gt;" style="rounded=0;whiteSpace=wrap;html=1;" vertex="1" parent="Whv6XW-6qkTEznCDVao7-1">
          <mxGeometry x="695" y="85" width="120" height="30" as="geometry" />
        </mxCell>
        <mxCell id="KXPFGndM-SMpojoQPKzY-2" value="紹介文" style="rounded=0;whiteSpace=wrap;html=1;" vertex="1" parent="Whv6XW-6qkTEznCDVao7-1">
          <mxGeometry x="410" y="125" width="280" height="45" as="geometry" />
        </mxCell>
        <mxCell id="KXPFGndM-SMpojoQPKzY-28" value="" style="rounded=0;whiteSpace=wrap;html=1;" vertex="1" parent="Whv6XW-6qkTEznCDVao7-1">
          <mxGeometry x="320" y="190" width="530" height="120" as="geometry" />
        </mxCell>
        <mxCell id="KXPFGndM-SMpojoQPKzY-29" value="アイコン" style="ellipse;whiteSpace=wrap;html=1;aspect=fixed;" vertex="1" parent="Whv6XW-6qkTEznCDVao7-1">
          <mxGeometry x="340" y="195" width="50" height="50" as="geometry" />
        </mxCell>
        <mxCell id="KXPFGndM-SMpojoQPKzY-30" value="&lt;font style=&quot;font-size: 16px;&quot;&gt;名前&lt;/font&gt;" style="rounded=0;whiteSpace=wrap;html=1;" vertex="1" parent="Whv6XW-6qkTEznCDVao7-1">
          <mxGeometry x="410" y="205" width="120" height="30" as="geometry" />
        </mxCell>
        <mxCell id="KXPFGndM-SMpojoQPKzY-31" value="&lt;font style=&quot;font-size: 16px;&quot;&gt;フォローする&lt;/font&gt;" style="rounded=0;whiteSpace=wrap;html=1;" vertex="1" parent="Whv6XW-6qkTEznCDVao7-1">
          <mxGeometry x="695" y="205" width="120" height="30" as="geometry" />
        </mxCell>
        <mxCell id="KXPFGndM-SMpojoQPKzY-32" value="紹介文" style="rounded=0;whiteSpace=wrap;html=1;" vertex="1" parent="Whv6XW-6qkTEznCDVao7-1">
          <mxGeometry x="410" y="245" width="280" height="45" as="geometry" />
        </mxCell>
        <mxCell id="KXPFGndM-SMpojoQPKzY-33" value="" style="rounded=0;whiteSpace=wrap;html=1;" vertex="1" parent="Whv6XW-6qkTEznCDVao7-1">
          <mxGeometry x="320" y="310" width="530" height="120" as="geometry" />
        </mxCell>
        <mxCell id="KXPFGndM-SMpojoQPKzY-34" value="アイコン" style="ellipse;whiteSpace=wrap;html=1;aspect=fixed;" vertex="1" parent="Whv6XW-6qkTEznCDVao7-1">
          <mxGeometry x="340" y="315" width="50" height="50" as="geometry" />
        </mxCell>
        <mxCell id="KXPFGndM-SMpojoQPKzY-35" value="&lt;font style=&quot;font-size: 16px;&quot;&gt;名前&lt;/font&gt;" style="rounded=0;whiteSpace=wrap;html=1;" vertex="1" parent="Whv6XW-6qkTEznCDVao7-1">
          <mxGeometry x="410" y="325" width="120" height="30" as="geometry" />
        </mxCell>
        <mxCell id="KXPFGndM-SMpojoQPKzY-36" value="&lt;font style=&quot;font-size: 16px;&quot;&gt;フォローする&lt;/font&gt;" style="rounded=0;whiteSpace=wrap;html=1;" vertex="1" parent="Whv6XW-6qkTEznCDVao7-1">
          <mxGeometry x="695" y="325" width="120" height="30" as="geometry" />
        </mxCell>
        <mxCell id="KXPFGndM-SMpojoQPKzY-37" value="紹介文" style="rounded=0;whiteSpace=wrap;html=1;" vertex="1" parent="Whv6XW-6qkTEznCDVao7-1">
          <mxGeometry x="410" y="365" width="280" height="45" as="geometry" />
        </mxCell>
        <mxCell id="KXPFGndM-SMpojoQPKzY-38" value="" style="rounded=0;whiteSpace=wrap;html=1;" vertex="1" parent="Whv6XW-6qkTEznCDVao7-1">
          <mxGeometry x="320" y="430" width="530" height="120" as="geometry" />
        </mxCell>
        <mxCell id="KXPFGndM-SMpojoQPKzY-39" value="アイコン" style="ellipse;whiteSpace=wrap;html=1;aspect=fixed;" vertex="1" parent="Whv6XW-6qkTEznCDVao7-1">
          <mxGeometry x="340" y="435" width="50" height="50" as="geometry" />
        </mxCell>
        <mxCell id="KXPFGndM-SMpojoQPKzY-40" value="&lt;font style=&quot;font-size: 16px;&quot;&gt;名前&lt;/font&gt;" style="rounded=0;whiteSpace=wrap;html=1;" vertex="1" parent="Whv6XW-6qkTEznCDVao7-1">
          <mxGeometry x="410" y="445" width="120" height="30" as="geometry" />
        </mxCell>
        <mxCell id="KXPFGndM-SMpojoQPKzY-41" value="&lt;font style=&quot;font-size: 16px;&quot;&gt;フォローする&lt;/font&gt;" style="rounded=0;whiteSpace=wrap;html=1;" vertex="1" parent="Whv6XW-6qkTEznCDVao7-1">
          <mxGeometry x="695" y="445" width="120" height="30" as="geometry" />
        </mxCell>
        <mxCell id="KXPFGndM-SMpojoQPKzY-42" value="紹介文" style="rounded=0;whiteSpace=wrap;html=1;" vertex="1" parent="Whv6XW-6qkTEznCDVao7-1">
          <mxGeometry x="410" y="485" width="280" height="45" as="geometry" />
        </mxCell>
        <mxCell id="Q1AVwuUevrv9x7QPum5e-0" value="アイコン" style="ellipse;whiteSpace=wrap;html=1;aspect=fixed;" vertex="1" parent="Whv6XW-6qkTEznCDVao7-1">
          <mxGeometry x="910" y="30" width="50" height="50" as="geometry" />
        </mxCell>
        <mxCell id="Q1AVwuUevrv9x7QPum5e-1" value="&lt;font style=&quot;font-size: 16px;&quot;&gt;名前&lt;/font&gt;" style="rounded=0;whiteSpace=wrap;html=1;" vertex="1" parent="Whv6XW-6qkTEznCDVao7-1">
          <mxGeometry x="980" y="30" width="120" height="30" as="geometry" />
        </mxCell>
        <mxCell id="Q1AVwuUevrv9x7QPum5e-2" value="紹介文" style="rounded=0;whiteSpace=wrap;html=1;" vertex="1" parent="Whv6XW-6qkTEznCDVao7-1">
          <mxGeometry x="915" y="210" width="180" height="60" as="geometry" />
        </mxCell>
        <mxCell id="Q1AVwuUevrv9x7QPum5e-3" value="&lt;span style=&quot;&quot;&gt;〇〇県△△市&lt;/span&gt;" style="rounded=0;whiteSpace=wrap;html=1;" vertex="1" parent="Whv6XW-6qkTEznCDVao7-1">
          <mxGeometry x="530" y="205" width="120" height="30" as="geometry" />
        </mxCell>
        <mxCell id="Q1AVwuUevrv9x7QPum5e-4" value="&lt;span style=&quot;&quot;&gt;〇〇県△△市&lt;/span&gt;" style="rounded=0;whiteSpace=wrap;html=1;" vertex="1" parent="Whv6XW-6qkTEznCDVao7-1">
          <mxGeometry x="530" y="445" width="120" height="30" as="geometry" />
        </mxCell>
        <mxCell id="Q1AVwuUevrv9x7QPum5e-5" value="&lt;span style=&quot;&quot;&gt;〇〇県△△市&lt;/span&gt;" style="rounded=0;whiteSpace=wrap;html=1;" vertex="1" parent="Whv6XW-6qkTEznCDVao7-1">
          <mxGeometry x="530" y="325" width="120" height="30" as="geometry" />
        </mxCell>
        <mxCell id="Q1AVwuUevrv9x7QPum5e-6" value="&lt;span style=&quot;&quot;&gt;〇〇県△△市&lt;/span&gt;" style="rounded=0;whiteSpace=wrap;html=1;" vertex="1" parent="Whv6XW-6qkTEznCDVao7-1">
          <mxGeometry x="530" y="85" width="120" height="30" as="geometry" />
        </mxCell>
        <mxCell id="Q1AVwuUevrv9x7QPum5e-8" value="&lt;span style=&quot;&quot;&gt;〇〇県△△市&lt;/span&gt;" style="rounded=0;whiteSpace=wrap;html=1;" vertex="1" parent="Whv6XW-6qkTEznCDVao7-1">
          <mxGeometry x="980" y="60" width="120" height="20" as="geometry" />
        </mxCell>
        <mxCell id="Q1AVwuUevrv9x7QPum5e-12" value="&lt;font style=&quot;font-size: 12px;&quot;&gt;フォローする&lt;/font&gt;" style="rounded=0;whiteSpace=wrap;html=1;" vertex="1" parent="Whv6XW-6qkTEznCDVao7-1">
          <mxGeometry x="960" y="160" width="90" height="30" as="geometry" />
        </mxCell>
        <mxCell id="GWAd7ALSDMVqYL01UmEd-2" value="フォロー中　〇〇人&lt;div&gt;&lt;span style=&quot;background-color: initial;&quot;&gt;フォロワー　〇〇人&lt;/span&gt;&lt;/div&gt;" style="rounded=0;whiteSpace=wrap;html=1;" vertex="1" parent="Whv6XW-6qkTEznCDVao7-1">
          <mxGeometry x="912.5" y="100" width="185" height="40" as="geometry" />
        </mxCell>
        <mxCell id="oIsv3XsCnKCSa4keF1Hg-0" value="&lt;font style=&quot;font-size: 16px;&quot;&gt;ユーザーを検索する&lt;/font&gt;" style="rounded=0;whiteSpace=wrap;html=1;" vertex="1" parent="Whv6XW-6qkTEznCDVao7-1">
          <mxGeometry x="915" y="390" width="180" height="60" as="geometry" />
        </mxCell>
      </root>
    </mxGraphModel>
  </diagram>
  <diagram id="g4SFX68Del0n_CZe_1-B" name="ページ3">
    <mxGraphModel grid="1" page="1" gridSize="10" guides="1" tooltips="1" connect="1" arrows="1" fold="1" pageScale="1" pageWidth="1169" pageHeight="1654" math="0" shadow="0">
      <root>
        <mxCell id="0" />
        <mxCell id="1" parent="0" />
      </root>
    </mxGraphModel>
  </diagram>
</mxfile>
